# AST/ASF file generated using VICON BodyLanguage
# -----------------------------------------------
:version 1.10
:name VICON
:units
  mass 1.0
  length 0.45
  angle deg
:documentation
   .ast/.asf automatically generated from VICON data using
   VICON BodyBuilder and BodyLanguage model FoxedUp or BRILLIANT.MOD
:root
   order TX TY TZ RX RY RZ
   axis XYZ
   position 0 0 0  
   orientation 0 0 0 
:bonedata
  begin
     id 1 
     name lhipjoint
     direction 0.653368 -0.678499 0.335782 
     length 2.51848 
     axis 0 0 0  XYZ
  end
  begin
     id 2 
     name lfemur
     direction 0.34202 -0.939693 0  
     length 6.57749  
     axis 0 0 20  XYZ
    dof rx ry rz
    limits (-160.0 20.0)
           (-70.0 70.0)
           (-60.0 70.0)
  end
  begin
     id 3 
     name ltibia
     direction 0.34202 -0.939693 0   
     length 7.94618   
     axis 0 0 20   XYZ
    dof rx
    limits (-10.0 170.0)
  end
  begin
     id 4 
     name lfoot
     direction 0.0811271 -0.222895 0.971461   
     length 2.31339   
     axis -90 7.62852e-016 20   XYZ
    dof rx rz
    limits (-45.0 90.0)
           (-70.0 20.0)
  end
  begin
     id 5 
     name ltoes
     direction 1.53568e-011 -4.21885e-011 1   
     length 1.15935   
     axis -90 7.62852e-016 20   XYZ
    dof rx
    limits (-90.0 20.0)
  end
  begin
     id 6 
     name rhipjoint
     direction -0.640058 -0.688614 0.340788   
     length 2.48149  
     axis 0 0 0  XYZ 
  end
  begin
     id 7 
     name rfemur
     direction -0.34202 -0.939693 0   
     length 6.57875   
     axis 0 0 -20   XYZ
    dof rx ry rz
    limits (-160.0 20.0)
           (-70.0 70.0)
           (-70.0 60.0)
  end
  begin
     id 8 
     name rtibia
     direction -0.34202 -0.939693 0   
     length 7.977   
     axis 0 0 -20   XYZ
    dof rx
    limits (-10.0 170.0)
 end
 begin
     id 9 
     name rfoot
     direction -0.0979793 -0.269196 0.958089   
     length 2.19857  
     axis -90 -7.62852e-016 -20   XYZ
    dof rx rz
    limits (-45.0 90.0)
           (-20.0 70.0)
  end
  begin
     id 10 
     name rtoes
     direction -1.53556e-011 -4.21868e-011 1   
     length 1.09838   
     axis -90 -7.62852e-016 -20   XYZ
    dof rx
    limits (-90.0 20.0)
  end
  begin
     id 11 
     name lowerback
     direction 0.0149039 0.998517 -0.0523597   
     length 2.10809   
     axis 0 0 0   XYZ
    dof rx ry rz
    limits (-20.0 45.0)
           (-30.0 30.0)
           (-30.0 30.0)
  end
  begin
     id 12 
     name upperback
     direction -0.00882659 0.999418 -0.0329624   
     length 2.1102   
     axis 0 0 0   XYZ
    dof rx ry rz
    limits (-20.0 45.0)
           (-30.0 30.0)
           (-30.0 30.0)
  end
  begin
     id 13 
     name thorax
     direction -0.0165585 0.999826 -0.0085833   
     length 2.11039   
     axis 0 0 0   XYZ
    dof rx ry rz
    limits (-20.0 45.0)
           (-30.0 30.0)
           (-30.0 30.0)
  end
  begin
     id 14 
     name lowerneck
     direction -0.0130877 0.999911 0.00260353   
     length 1.73253   
     axis 0 0 0   XYZ
    dof rx ry rz
    limits (-20.0 45.0)
           (-30.0 30.0)
           (-30.0 30.0)
  end
  begin
     id 15 
     name upperneck
     direction -0.0348454 0.928205 -0.370435   
     length 1.66692   
     axis 0 0 0   XYZ
    dof rx ry rz
    limits (-20.0 45.0)
           (-30.0 30.0)
           (-30.0 30.0)
  end
  begin
     id 16
     name head
     direction -0.00807754 0.992494 -0.122026  
     length 1.72765  
     axis 0 0 0   XYZ
    dof rx ry rz
    limits (-20.0 45.0)
           (-30.0 30.0)
           (-30.0 30.0)
  end
  begin
     id 17 
     name lclavicle
     direction 0.987582 0.144023 0.0627671  
     length 3.49235  
     axis 0 0 0   XYZ
    dof ry rz
    limits (-20.0 10.0)
           (0.0 20.0)
  end
  begin
     id 18 
     name lhumerus
     direction 1 -4.48958e-011 -1.45183e-018   
     length 5.41917   
     axis 180 -30 -90   XYZ
    dof rx ry rz
    limits (-60.0 90.0)
           (-90.0 90.0)
           (-90.0 90.0)
  end
  begin
     id 19
     name lradius
     direction 1 -4.48999e-011 5.75106e-027   
     length 2.44373   
     axis 180 -30 -90   XYZ
    dof rx
    limits (-10.0 170.0)
  end
  begin
     id 20
     name lwrist
     direction 1 -4.48987e-011 1.53461e-026   
     length 1.22186   
     axis -1.09697e-014 90 90   XYZ
    dof ry
    limits (-180.0 0.0)
 end
  begin
     id 21 
     name lhand
     direction 1 -4.48881e-011 3.06923e-026   
     length 0.727502   
     axis -1.95843e-014 90 90   XYZ
    dof rx rz
    limits (-90.0 90.0)
           (-45.0 45.0)
  end
  begin
     id 22 
     name lfingers
     direction 1 -4.48907e-011 6.13845e-026   
     length 0.586531   
     axis -3.91686e-014 90 90   XYZ
    dof rx
    limits (0.0 90.0)
  end
  begin
     id 23
     name lthumb
     direction 0.707107 -6.3487e-011 0.707107   
     length 0.842145   
     axis -90 45 2.85299e-015   XYZ
    dof rx rz
    limits (-45.0 45.0)
           (-45.0 45.0)
  end
  begin
     id 24 
     name rclavicle
     direction -0.980998 0.169556 0.0943023   
     length 3.29272  
     axis 0 0 0   XYZ 
    dof ry rz
    limits (-10.0 20.0)
           (-20.0 0.0)
  end
  begin
     id 25 
     name rhumerus
     direction -1 -1.83355e-005 2.45537e-005  
     length 5.58976   
     axis 180 30 90   XYZ
    dof rx ry rz
    limits (-90.0 60.0)
           (-90.0 90.0)
           (-90.0 90.0)
  end
  begin
     id 26 
     name rradius
     direction -1 -4.48967e-011 5.97228e-027   
     length 2.4806   
     axis 180 30 90   XYZ
    dof rx
    limits (-10.0 170.0)
  end
  begin
     id 27 
     name rwrist
     direction -1 -4.48963e-011 1.53461e-026   
     length 1.2403   
     axis -1.09697e-014 -90 -90   XYZ
    dof ry
    limits (-180.0 0.0)
  end
  begin
     id 28
     name rhand
     direction -1 -4.48881e-011 3.06923e-026   
     length 0.816009   
     axis -1.95843e-014 -90 -90   XYZ
    dof rx rz
    limits (-90.0 90.0)
           (-45.0 45.0)
  end
  begin
     id 29
     name rfingers
     direction -1 -4.49018e-011 6.13845e-026   
     length 0.657887   
     axis -3.91686e-014 -90 -90   XYZ
    dof rx
    limits (0.0 90.0)
  end
  begin
     id 30
     name rthumb
     direction -0.707107 -6.34872e-011 0.707107   
     length 0.944599   
     axis -90 -45 -2.85299e-015   XYZ
    dof rx rz
    limits (-45.0 45.0)
           (-45.0 45.0)
  end
:hierarchy
  begin
    root lhipjoint rhipjoint lowerback
    lhipjoint lfemur
    lfemur ltibia
    ltibia lfoot
    lfoot ltoes
    rhipjoint rfemur
    rfemur rtibia
    rtibia rfoot
    rfoot rtoes
    lowerback upperback
    upperback thorax
    thorax lowerneck lclavicle rclavicle
    lowerneck upperneck
    upperneck head
    lclavicle lhumerus
    lhumerus lradius
    lradius lwrist
    lwrist lhand lthumb
    lhand lfingers
    rclavicle rhumerus
    rhumerus rradius
    rradius rwrist
    rwrist rhand rthumb
    rhand rfingers
  end

#!OML:ASF F:\VICON\USERDATA\INSTALL\rory3\rory3.ASF
:FULLY-SPECIFIED
:DEGREES
81
root 3.41452 16.6522 8.26256 -55.3773 -82.2685 82.0674
lowerback -2.86374 -0.212156 -5.75717
upperback -5.71632 -0.303508 4.78395
thorax -4.32218 0.137616 8.3101
lowerneck -9.79426 -5.38502 -0.34142
upperneck 33.7521 -13.707 10.6597
head 14.0548 -5.24782 2.14382
rclavicle 2.0276e-014 -1.74931e-014
rhumerus -28.8386 65.3488 -107.622
rradius 70.3104
rwrist -89.7259
rhand -15.6756 -1.88705
rfingers 7.12502
rthumb 10.5131 -31.6041
lclavicle 2.0276e-014 -1.74931e-014
lhumerus -24.7243 -67.2048 101.423
lradius 89.7393
lwrist 59.1272
lhand 21.8422 14.4034
lfingers 7.12502
lthumb 46.2472 37.3943
rfemur -56.5332 -25.8598 12.3125
rtibia 47.0909
rfoot -34.9748 -38.9328
rtoes 39.013
lfemur -41.139 -3.48189 -24.0525
ltibia 35.1836
lfoot -64.4079 19.3848
ltoes 43.2164
82
root 3.398 16.6468 8.13759 -53.5602 -81.9087 80.5556
lowerback -2.97248 -0.426771 -5.29464
upperback -5.74918 -0.590594 4.85408
thorax -4.23798 -0.03022 8.11556
lowerneck -10.1754 -4.83554 -0.293999
upperneck 34.44 -13.3048 11.1337
head 14.479 -4.97745 2.39087
rclavicle 1.86858e-014 -6.52014e-014
rhumerus -28.7997 65.9688 -106.427
rradius 72.0899
rwrist -88.8687
rhand -13.0939 -1.74027
rfingers 7.12502
rthumb 13.0027 -31.3151
lclavicle 1.86858e-014 -6.52014e-014
lhumerus -25.9535 -68.0135 100.937
lradius 91.2158
lwrist 58.9647
lhand 21.7493 14.6115
lfingers 7.12502
lthumb 46.1611 37.6387
rfemur -56.5219 -25.2136 12.3281
rtibia 46.9214
rfoot -38.7276 -38.2753
rtoes 41.1773
lfemur -41.3702 -4.25544 -23.5467
ltibia 35.0897
lfoot -64.6325 19.3978
ltoes 43.2404
83
root 3.38075 16.6415 8.00016 -50.628 -81.7935 77.983
lowerback -3.12889 -0.590373 -4.71733
upperback -5.80517 -0.81005 5.14552
thorax -4.1675 -0.165215 8.09363
lowerneck -10.3977 -4.38302 0.172366
upperneck 34.9213 -12.8377 11.0102
head 14.6752 -4.70612 2.33959
rclavicle -5.56597e-015 -2.38542e-014
rhumerus -28.3686 66.0692 -104.926
rradius 73.4207
rwrist -87.79
rhand -10.297 -1.78541
rfingers 7.12502
rthumb 15.6976 -31.1687
lclavicle -5.56597e-015 -2.38542e-014
lhumerus -27.0062 -68.7347 100.549
lradius 92.2355
lwrist 58.3713
lhand 22.6951 16.0118
lfingers 7.12502
lthumb 47.037 38.6617
rfemur -56.7139 -24.7636 12.9341
rtibia 46.7702
rfoot -41.5366 -37.8764
rtoes 42.8499
lfemur -41.6796 -4.88869 -22.6235
ltibia 35.0848
lfoot -64.0388 20.6328
ltoes 42.0926
84
root 3.36376 16.6294 7.86301 -49.4119 -81.771 76.9667
lowerback -3.17284 -0.703987 -4.21874
upperback -5.80918 -0.965281 5.47369
thorax -4.11907 -0.263666 8.15806
lowerneck -10.5037 -3.90333 0.477724
upperneck 35.3969 -12.219 10.7531
head 14.8283 -4.41185 2.29006
rclavicle 1.59028e-014 -1.27222e-014
rhumerus -29.2099 67.832 -103.362
rradius 76.1653
rwrist -87.8725
rhand -8.7833 -0.417449
rfingers 7.12502
rthumb 17.155 -29.6801
lclavicle 1.59028e-014 -1.27222e-014
lhumerus -27.8749 -69.2731 100.071
lradius 92.6845
lwrist 57.3584
lhand 20.3404 17.9431
lfingers 7.12502
lthumb 44.8521 41.5007
rfemur -56.8286 -24.2521 13.4888
rtibia 46.6693
rfoot -43.6756 -37.5339
rtoes 44.1056
lfemur -41.7769 -5.68097 -21.4423
ltibia 35.1607
lfoot -63.8627 20.9919
ltoes 41.6218
85
root 3.36131 16.5934 7.78416 -45.2101 -81.0789 72.9378
lowerback -3.1116 -1.14879 -3.20541
upperback -5.85939 -1.56796 5.62742
thorax -4.1128 -0.609692 7.73321
lowerneck -10.6285 -3.30551 0.864064
upperneck 35.8873 -11.3198 10.2223
head 14.9433 -4.01913 2.15692
rclavicle 8.74653e-015 -1.59028e-014
rhumerus -28.814 68.4905 -101.757
rradius 77.4062
rwrist -87.1458
rhand -6.75379 0.723211
rfingers 7.12502
rthumb 19.1076 -28.3582
lclavicle 8.74653e-015 -1.59028e-014
lhumerus -28.8448 -69.7486 99.254
lradius 93.2758
lwrist 56.8579
lhand 24.7365 15.6815
lfingers 7.12502
lthumb 48.9192 37.4538
rfemur -57.1885 -25.308 13.9523
rtibia 46.7424
rfoot -43.8239 -37.7867
rtoes 43.7621
lfemur -42.1291 -7.03899 -20.7472
ltibia 35.3727
lfoot -63.3618 21.2546
ltoes 41.2583
